{"title":"Dragonwolf BluRayRip.flv","uid":9132245,"size":464525531,"categoryP":"video","categoryS":"movies","magnet":"?xt=urn:btih:16368ac645813dd7d53bb5e4cdb897feb5fe64be&amp;dn=Dragonwolf+BluRayRip.flv&amp;tr=udp%3A%2F%2Ftracker.openbittorrent.com%3A80&amp;tr=udp%3A%2F%2Fopen.demonii.com%3A1337&amp;tr=udp%3A%2F%2Ftracker.coppersurfer.tk%3A6969&amp;tr=udp%3A%2F%2Fexodus.desync.com%3A6969","seeders":1,"leechers":0,"uploader":"globeplus","files":-1,"time":1383345538,"description":"Dragonwolf BluRayRip.flv\n\n\nFormat                                   : Flash Video\nFile size                                : 443 MiB\nDuration                                 : 2h 1mn\nOverall bit rate                         : 511 Kbps\nTagging application                      : Yet Another Metadata Injector for FLV - Version 1.9\n\nVideo\n\nFormat                                   : AVC\nFormat/Info                              : Advanced Video Codec\nFormat profile                           : &lt;a class=&quot;__cf_email__&quot; href=&quot;/cdn-cgi/l/email-protection&quot; data-cfemail=&quot;175f7e707f575b243927&quot;&gt;[email&amp;#160;protected]&lt;/a&gt;&lt;script cf-hash='f9e31' type=&quot;text/javascript&quot;&gt;\n/* &lt;![CDATA[ */!function(){try{var t=&quot;currentScript&quot;in document?document.currentScript:function(){for(var t=document.getElementsByTagName(&quot;script&quot;),e=t.length;e--;)if(t[e].getAttribute(&quot;cf-hash&quot;))return t[e]}();if(t&amp;&amp;t.previousSibling){var e,r,n,i,c=t.previousSibling,a=c.getAttribute(&quot;data-cfemail&quot;);if(a){for(e=&quot;&quot;,r=parseInt(a.substr(0,2),16),n=2;a.length-n;n+=2)i=parseInt(a.substr(n,2),16)^r,e+=String.fromCharCode(i);e=document.createTextNode(e),c.parentNode.replaceChild(e,c)}}}catch(u){}}();/* ]]&gt; */&lt;/script&gt;\nFormat settings, CABAC                   : Yes\nFormat settings, ReFrames                : 4 frames\nCodec ID                                 : 7\nDuration                                 : 2h 1mn\nBit rate                                 : 315 Kbps\nWidth                                    : 704 pixels\nHeight                                   : 384 pixels\nDisplay aspect ratio                     : 16:9\nFrame rate mode                          : Constant\nFrame rate                               : 23.976 fps\nColor space                              : YUV\nChroma subsampling                       : 4:2:0\nBit depth                                : 8 bits\nScan type                                : Progressive\nBits/(Pixel*Frame)                       : 0.049\nStream size                              : 281 MiB (63%)\nWriting library                          : x264 core 138\n\n\nAudio\n\nFormat                                   : AAC\nFormat/Info                              : Advanced Audio Codec\nFormat profile                           : LC\nCodec ID                                 : 10\nDuration                                 : 2h 1mn\nBit rate                                 : 176 Kbps\nChannel(s)                               : 2 channels\nChannel positions                        : Front: L R\nSampling rate                            : 44.1 KHz\nCompression mode                         : Lossy\nDelay relative to video                  : 37ms\nStream size                              : 160 MiB (36%)\n\n\n\nSTORY\n\n\nThe Devil's Cauldron, a city where depravity and violence has forged a society in which only the lethal and callous can survive, two young men who possess the intellect and ferocity to flourish, carve a name for themselves as the most efficient and unstoppable hit men. Side by side, these two brothers are the deadliest killers, feared by even the most evil criminals. But when a woman of rare beauty mysteriously enters the brother's lives she blinds them with her sweet promises and turns them against each other, resulting in an epic battle that threatens to bring the Devil's Cauldron to the brink of destruction.\n\n\n\n\n\n* enjoy ... \n\n","torrent":{"xt":"urn:btih:16368ac645813dd7d53bb5e4cdb897feb5fe64be","amp;dn":"Dragonwolf+BluRayRip.flv","amp;tr":["udp%3A%2F%2Ftracker.openbittorrent.com%3A80","udp%3A%2F%2Fopen.demonii.com%3A1337","udp%3A%2F%2Ftracker.coppersurfer.tk%3A6969","udp%3A%2F%2Fexodus.desync.com%3A6969"],"infoHash":"16368ac645813dd7d53bb5e4cdb897feb5fe64be","infoHashBuffer":{"type":"Buffer","data":[22,54,138,198,69,129,61,215,213,59,181,228,205,184,151,254,181,254,100,190]},"announce":[],"urlList":[]}}